<?xml version="1.0" standalone="no"?>
<!DOCTYPE svg PUBLIC "-//W3C//DTD SVG 20010904//EN"
 "http://www.w3.org/TR/2001/REC-SVG-20010904/DTD/svg10.dtd">
<svg version="1.0" xmlns="http://www.w3.org/2000/svg"
 width="471.000000pt" height="471.000000pt" viewBox="0 0 471.000000 471.000000"
 preserveAspectRatio="xMidYMid meet">
<metadata>
Created by potrace 1.11, written by Peter Selinger 2001-2013
</metadata>
<g transform="translate(0.000000,471.000000) scale(0.100000,-0.100000)"
fill="#000000" stroke="none">
<path d="M2180 3714 c0 -6 -15 -10 -35 -9 -19 1 -35 -3 -35 -7 0 -5 -9 -6 -20
-3 -12 4 -26 3 -33 -2 -10 -8 -34 -12 -84 -16 -7 0 -13 -4 -13 -8 0 -4 -9 -6
-20 -4 -11 2 -20 0 -20 -5 0 -4 -11 -7 -24 -6 -15 2 -27 -3 -31 -12 -3 -8 -8
-12 -12 -9 -3 4 -12 2 -20 -4 -7 -6 -13 -8 -13 -4 0 4 -11 0 -25 -9 -14 -9
-25 -14 -25 -10 0 3 -11 -1 -25 -10 -14 -9 -25 -14 -25 -11 0 4 -7 -1 -16 -9
-8 -9 -22 -16 -30 -16 -8 0 -20 -5 -27 -10 -7 -6 -45 -31 -84 -56 -40 -25 -73
-51 -73 -57 0 -5 -3 -8 -6 -4 -3 3 -15 -2 -26 -11 -39 -32 -163 -158 -193
-195 -16 -21 -38 -48 -47 -59 -10 -12 -18 -25 -18 -30 0 -5 -6 -6 -12 -2 -7 4
-10 4 -6 -1 4 -4 -1 -20 -12 -35 -11 -16 -20 -33 -20 -39 0 -6 -4 -11 -9 -11
-7 0 -19 -28 -19 -47 0 -3 -4 -9 -9 -12 -12 -8 -43 -70 -43 -86 0 -7 -7 -16
-16 -19 -8 -3 -12 -11 -9 -16 4 -6 2 -17 -4 -24 -7 -8 -11 -18 -9 -22 1 -5 -3
-19 -10 -32 -7 -12 -10 -27 -7 -32 3 -6 1 -10 -4 -10 -6 0 -10 -3 -10 -7 4
-25 -2 -53 -11 -48 -6 4 -7 -1 -3 -11 4 -11 8 -13 11 -6 2 7 8 9 13 6 17 -10
129 -9 133 1 3 6 5 6 5 -1 1 -12 58 -6 67 7 3 5 8 22 10 36 3 15 10 30 15 34
6 3 9 10 8 15 -4 22 2 35 14 28 6 -4 9 -4 5 1 -4 4 -1 22 7 40 7 19 10 37 7
41 -4 4 -2 4 4 1 7 -4 18 1 25 10 8 9 9 14 2 10 -8 -5 -8 -1 0 18 7 14 15 25
20 25 4 0 7 6 7 14 0 8 14 28 30 44 17 17 30 34 30 39 0 4 12 21 28 38 15 16
37 42 50 59 12 16 22 27 22 24 0 -4 22 14 50 40 62 59 71 67 97 81 12 6 27 17
35 24 7 7 24 18 38 25 14 7 40 21 58 32 18 11 38 18 43 15 5 -4 9 -1 9 6 0 7
3 10 6 6 4 -3 13 1 21 9 8 8 19 12 24 9 5 -4 9 -1 9 5 0 6 5 8 10 5 6 -3 10
-2 10 4 0 5 9 8 20 6 11 -2 20 0 20 6 0 5 5 9 11 9 5 0 7 -6 4 -12 -4 -7 0 -5
8 4 7 9 30 18 50 20 20 1 37 6 37 11 0 4 5 5 10 2 6 -4 18 -1 27 7 12 9 15 9
9 1 -4 -7 -2 -13 3 -13 6 0 11 5 11 11 0 5 4 7 10 4 5 -3 18 -1 29 5 14 7 22
7 27 -1 4 -8 9 -7 15 2 7 11 9 11 9 1 0 -10 5 -10 20 -2 14 8 20 8 20 0 0 -7
7 -7 21 1 16 8 20 8 14 -1 -6 -9 -2 -9 14 -1 16 9 21 9 21 0 0 -8 4 -9 13 0 8
6 16 9 19 6 3 -3 29 -8 59 -11 30 -3 60 -11 67 -16 8 -7 12 -7 12 3 0 10 3 10
11 2 6 -6 18 -9 27 -6 9 4 13 2 9 -4 -5 -7 0 -9 13 -6 11 3 20 1 20 -4 0 -6
10 -10 23 -9 12 1 39 -7 59 -17 21 -10 42 -16 47 -13 5 3 11 2 13 -3 1 -5 10
-11 18 -13 8 -2 21 -9 28 -16 8 -7 18 -10 23 -7 5 4 9 3 9 -2 0 -4 18 -17 40
-27 22 -11 40 -23 40 -28 0 -4 6 -8 13 -8 7 0 29 -15 48 -33 19 -18 40 -32 47
-29 7 2 12 -3 12 -12 0 -9 4 -16 9 -16 10 0 111 -95 111 -104 0 -3 14 -19 31
-36 18 -16 28 -30 23 -30 -5 0 -1 -5 9 -11 9 -5 17 -17 17 -24 0 -8 5 -15 10
-15 6 0 10 -7 10 -15 0 -8 5 -15 10 -15 6 0 10 -6 10 -14 0 -7 7 -19 15 -26 9
-7 14 -19 11 -26 -3 -8 1 -17 8 -21 13 -8 30 -43 28 -55 -1 -5 2 -8 6 -8 4 0
9 -10 9 -22 1 -13 7 -24 13 -26 5 -2 10 -11 10 -21 0 -9 8 -27 17 -40 9 -14
11 -21 5 -17 -13 8 -16 -6 -4 -18 4 -4 8 -12 8 -17 1 -5 2 -10 4 -11 4 -7 11
-46 13 -75 1 -18 5 -33 9 -33 4 0 6 -17 5 -37 -2 -37 -3 -38 -42 -39 -22 -1
-43 4 -47 10 -6 8 -8 8 -8 0 0 -13 -58 -13 -79 0 -10 6 -12 5 -7 -2 4 -7 2
-12 -3 -12 -6 0 -11 6 -11 13 0 7 -3 8 -8 2 -10 -15 -72 -16 -72 -2 0 8 -3 8
-8 2 -10 -14 -65 -15 -74 -1 -6 8 -8 8 -8 -1 0 -6 -11 -10 -25 -8 -14 1 -25
-1 -26 -4 -6 -47 -2 -168 5 -163 5 3 2 -5 -6 -17 -12 -17 -14 -31 -8 -52 5
-18 5 -27 -1 -24 -9 6 -12 -3 -12 -37 0 -10 -4 -18 -8 -18 -5 0 -9 -10 -9 -23
0 -13 -7 -32 -15 -43 -8 -10 -15 -27 -15 -36 0 -10 -5 -18 -11 -18 -5 0 -7 -4
-4 -10 3 -5 1 -10 -5 -10 -6 0 -8 -4 -5 -10 3 -5 1 -10 -4 -10 -6 0 -11 -7
-11 -15 0 -8 -5 -15 -12 -15 -6 0 -8 -3 -5 -6 4 -4 -1 -14 -11 -23 -10 -9 -30
-32 -46 -51 -16 -19 -30 -34 -32 -33 -2 1 -22 -16 -45 -38 -23 -21 -46 -39
-51 -39 -5 0 -24 -11 -42 -25 -18 -14 -36 -22 -39 -18 -4 3 -7 1 -7 -5 0 -9
-50 -26 -66 -22 -4 1 -10 -3 -13 -9 -4 -6 -25 -12 -47 -14 -23 -2 -46 -7 -52
-11 -5 -3 -29 -7 -52 -8 -22 -1 -43 -5 -46 -10 -3 -4 -11 -5 -17 -1 -7 4 -28
9 -47 10 -49 4 -63 7 -79 17 -11 7 -12 6 -6 -5 8 -12 6 -12 -8 0 -9 7 -17 10
-17 5 0 -4 -5 -3 -11 3 -6 6 -18 9 -25 6 -8 -3 -14 -1 -14 4 0 5 -7 10 -15 11
-8 1 -22 3 -30 4 -8 1 -15 5 -15 9 0 7 -39 22 -52 20 -5 -1 -8 3 -8 7 0 5 -11
14 -24 20 -24 11 -53 32 -87 64 -9 9 -20 14 -23 10 -3 -3 -6 2 -6 11 0 9 -7
17 -15 17 -8 0 -15 6 -15 13 0 7 -8 20 -17 29 -29 27 -44 48 -36 48 4 0 0 5
-9 11 -17 9 -34 41 -79 146 -9 22 -15 44 -12 47 4 3 2 6 -3 6 -6 0 -11 17 -12
38 -2 20 -7 39 -13 40 -6 3 -5 9 2 18 6 8 7 14 2 14 -11 0 -11 140 0 158 5 7
4 12 -2 12 -6 0 -10 5 -8 12 1 8 -9 12 -28 11 -16 0 -33 4 -37 11 -5 8 -8 8
-8 0 0 -6 -18 -11 -40 -11 -26 0 -37 4 -33 11 5 8 3 8 -8 0 -18 -14 -52 -14
-61 0 -6 8 -8 8 -8 0 0 -13 -58 -13 -79 0 -10 6 -12 5 -7 -2 4 -7 2 -12 -3
-12 -6 0 -11 6 -11 13 0 7 -3 8 -8 2 -10 -14 -65 -15 -74 -1 -5 7 -8 7 -8 1 0
-15 -70 -16 -70 -1 0 7 -3 7 -8 1 -10 -14 -65 -15 -74 -1 -6 8 -8 8 -8 0 0 -6
-10 -10 -22 -10 -31 3 -60 -12 -51 -26 9 -15 11 -58 2 -58 -3 0 -3 -20 1 -45
5 -30 3 -45 -4 -45 -7 0 -8 -3 -1 -8 6 -4 10 -22 10 -39 -1 -18 3 -33 8 -33 5
0 4 -6 -2 -14 -8 -10 -9 -16 -1 -21 5 -3 10 -22 10 -41 0 -19 5 -34 11 -34 8
0 8 -4 0 -14 -8 -10 -9 -16 -1 -21 5 -3 10 -19 10 -35 0 -16 5 -32 10 -35 6
-3 10 -19 10 -35 0 -16 5 -32 10 -35 6 -4 8 -11 5 -16 -4 -5 -2 -9 4 -9 5 0 8
-9 6 -20 -2 -11 1 -20 6 -20 6 0 7 -4 4 -10 -3 -5 -1 -10 5 -10 6 0 8 -5 5
-10 -3 -6 -1 -10 4 -10 6 0 11 -9 11 -19 0 -11 5 -23 11 -26 6 -4 8 -14 5 -22
-3 -8 -2 -11 3 -8 5 3 13 -5 16 -17 4 -13 14 -31 23 -41 8 -9 13 -20 9 -23 -3
-3 2 -14 11 -23 23 -24 46 -58 41 -62 -2 -2 8 -16 21 -30 14 -14 41 -45 60
-69 49 -62 148 -159 154 -152 3 3 6 -2 6 -11 0 -10 5 -17 11 -17 11 0 92 -60
97 -72 2 -5 8 -8 13 -8 5 0 33 -16 63 -35 30 -19 60 -35 66 -35 5 0 10 -4 10
-10 0 -5 8 -7 18 -3 9 3 14 2 9 -2 -7 -8 52 -35 81 -37 6 -1 12 -5 12 -10 0
-5 4 -7 9 -3 5 3 17 -2 25 -11 12 -11 16 -12 16 -2 0 10 3 9 10 -2 5 -8 10
-12 10 -8 0 4 16 0 35 -8 20 -8 40 -12 45 -9 6 4 10 2 10 -3 0 -5 15 -8 34 -7
19 0 32 -3 30 -7 -3 -4 7 -9 23 -9 50 -3 74 -6 80 -13 3 -3 12 -1 20 5 8 7 13
8 13 1 0 -12 219 -10 239 2 10 6 12 5 7 -2 -8 -13 6 -17 18 -5 3 4 26 8 49 10
23 2 49 6 57 10 8 3 20 7 25 8 21 5 81 16 93 17 6 1 12 5 12 10 0 5 4 7 9 3 5
-3 12 -1 16 5 4 6 10 8 15 5 5 -3 11 -1 15 5 4 6 10 8 15 5 5 -3 11 -1 15 5 4
6 11 8 16 5 5 -4 9 -1 9 6 0 7 3 9 7 6 3 -4 12 -2 20 4 7 6 13 8 13 5 0 -4 7
0 16 8 8 9 19 14 24 11 5 -3 10 -2 12 2 1 5 24 19 51 33 26 13 47 28 47 33 0
4 4 6 9 2 6 -3 14 3 20 12 6 10 11 14 11 10 0 -9 69 40 87 63 7 8 13 12 13 7
0 -8 170 162 208 207 12 15 22 31 22 35 0 4 11 18 25 31 14 13 25 29 25 35 0
7 11 25 24 40 14 16 23 32 20 37 -3 4 0 8 6 8 6 0 9 4 5 9 -3 6 3 14 12 20 10
5 14 13 10 17 -4 4 0 15 9 25 8 9 17 23 18 31 2 7 9 27 16 43 7 17 15 39 17
50 2 10 7 22 12 25 4 3 7 13 5 23 -1 9 1 17 5 17 4 0 8 6 9 13 0 6 3 26 5 42
l5 30 -77 0 c-42 0 -82 -4 -88 -8 -7 -5 -13 -4 -13 2 0 5 -8 8 -17 6 -10 -2
-21 -4 -25 -4 -4 -1 -5 -10 -3 -20 2 -11 -3 -25 -11 -31 -7 -7 -11 -16 -8 -21
3 -5 1 -9 -5 -9 -5 0 -8 -9 -6 -20 2 -11 -3 -24 -13 -29 -9 -5 -14 -12 -10
-16 3 -4 -9 -34 -28 -67 -19 -33 -34 -62 -34 -65 0 -2 -6 -11 -12 -18 -30 -33
-38 -45 -38 -55 0 -5 -4 -10 -10 -10 -5 0 -10 -4 -10 -10 0 -5 -14 -24 -31
-42 -84 -90 -117 -123 -123 -125 -7 -3 -26 -18 -54 -43 -36 -32 -80 -59 -86
-53 -3 3 -6 -1 -6 -10 0 -10 -3 -16 -7 -15 -5 1 -33 -11 -63 -27 -53 -28 -72
-35 -97 -37 -7 -1 -10 -5 -7 -10 5 -8 -10 -12 -35 -9 -7 2 -10 -2 -6 -9 5 -9
1 -10 -14 -5 -13 4 -21 2 -21 -5 0 -7 -7 -10 -15 -6 -8 3 -15 1 -15 -4 0 -5
-14 -8 -31 -8 -17 1 -35 -5 -40 -13 -7 -12 -9 -12 -9 1 0 9 -3 11 -8 5 -7 -10
-31 -14 -109 -18 -24 -1 -43 -6 -43 -12 0 -7 -3 -7 -8 0 -9 13 -42 15 -42 3 0
-6 -6 -6 -14 1 -11 9 -15 9 -19 -1 -4 -10 -6 -10 -6 -1 -1 9 -8 10 -27 3 -18
-7 -23 -7 -18 1 4 8 0 9 -15 4 -12 -4 -21 -2 -21 4 0 6 -5 11 -11 11 -5 0 -8
-4 -5 -9 3 -5 -13 -4 -37 1 -23 6 -53 12 -67 13 -14 2 -25 4 -25 5 0 1 -11 4
-25 6 -13 2 -27 8 -30 12 -3 4 -14 8 -25 10 -23 3 -31 5 -65 19 -14 6 -28 9
-33 6 -4 -2 -10 3 -13 11 -3 9 -10 14 -14 11 -4 -3 -24 6 -44 20 -20 14 -43
25 -51 25 -8 0 -15 5 -15 11 0 5 -4 7 -10 4 -5 -3 -10 -2 -10 2 0 5 -12 16
-27 25 -16 9 -41 28 -58 42 -16 14 -34 26 -38 26 -5 0 -5 5 -1 12 4 6 3 8 -3
5 -5 -3 -29 14 -52 38 -24 25 -47 45 -52 45 -6 0 -8 4 -4 9 3 6 -1 13 -8 18
-7 4 -24 24 -37 43 -14 19 -32 44 -42 54 -10 11 -24 32 -30 48 -7 15 -17 28
-21 28 -5 0 -5 5 -2 10 3 6 2 10 -2 10 -10 0 -43 69 -43 88 0 7 -5 12 -10 12
-6 0 -9 3 -9 8 1 4 0 10 -1 15 -1 4 -3 10 -5 15 -1 4 -5 16 -9 27 -20 51 -26
72 -30 95 -3 14 -5 25 -7 25 -1 0 -3 9 -5 20 -2 11 -6 31 -8 45 -3 14 -8 41
-11 61 l-5 36 110 -1 c60 -1 112 -5 116 -9 4 -4 2 -7 -5 -7 -7 0 -9 -5 -5 -12
8 -12 14 -45 17 -80 1 -10 4 -18 8 -18 4 0 6 -11 4 -25 -1 -14 2 -25 6 -25 5
0 9 -9 9 -19 0 -11 5 -23 10 -26 6 -3 10 -15 10 -26 0 -10 5 -19 11 -19 5 0 8
-4 4 -9 -3 -5 2 -17 11 -25 8 -9 12 -16 8 -16 -3 0 -1 -7 6 -15 7 -8 9 -15 4
-15 -5 0 -4 -4 2 -8 6 -4 23 -25 37 -48 14 -22 33 -48 42 -57 9 -10 14 -17 12
-17 -3 0 19 -25 48 -55 29 -30 58 -55 64 -55 6 0 11 -7 11 -15 0 -8 11 -17 25
-21 14 -3 22 -10 19 -15 -3 -5 2 -9 10 -9 8 0 19 -8 25 -17 5 -10 13 -15 16
-11 4 4 13 2 21 -5 33 -30 42 -35 48 -30 3 4 6 1 6 -5 0 -6 7 -9 15 -6 8 4 15
2 15 -4 0 -9 37 -25 53 -23 4 1 15 -6 24 -15 13 -12 17 -13 24 -2 7 10 9 10 9
-1 0 -8 3 -11 7 -8 3 4 12 2 19 -4 7 -6 26 -11 43 -11 17 -1 28 -5 25 -10 -8
-12 10 -10 24 4 9 9 12 9 12 -2 0 -7 3 -10 7 -7 3 4 12 2 20 -4 10 -9 13 -8
13 1 0 10 3 10 14 1 11 -9 15 -9 19 1 3 7 6 8 6 2 1 -14 170 -7 188 8 9 7 13
7 13 -1 0 -8 5 -9 19 -1 11 5 31 11 45 12 15 1 26 6 26 10 0 4 9 5 20 3 11 -2
20 0 20 4 0 4 6 8 13 8 6 0 29 7 50 16 20 9 40 16 44 16 3 -1 9 3 12 8 3 4 24
17 46 28 22 11 45 25 51 30 7 6 24 19 40 30 15 11 37 29 49 40 11 11 23 19 28
17 4 -1 7 4 7 11 0 8 11 20 25 27 14 7 23 16 20 18 -3 3 9 18 25 34 17 15 31
33 33 39 1 7 12 23 25 37 12 14 22 31 22 38 0 8 3 14 8 14 8 0 38 61 34 73 -1
4 2 7 7 7 5 0 11 10 15 23 3 12 5 22 5 22 -1 0 5 16 13 35 8 19 14 43 12 53
-1 9 1 15 6 12 4 -3 12 19 16 47 4 29 9 56 10 61 1 4 2 11 3 17 0 5 21 8 46 6
28 -2 42 0 38 7 -4 6 -1 7 7 2 17 -11 80 -14 74 -3 -3 4 5 5 18 0 29 -9 59 -9
76 1 6 5 12 4 12 0 0 -5 22 -8 49 -8 27 0 48 2 46 6 -5 8 28 5 42 -4 14 -9 27
9 18 23 -3 6 -1 10 5 10 8 0 8 6 0 20 -8 15 -8 20 1 20 8 0 7 5 -2 17 -10 11
-10 14 -1 9 15 -9 16 6 0 22 -7 7 -8 12 -2 12 5 0 8 15 7 32 -1 18 -2 33 -3
33 -1 0 -3 16 -4 35 -1 19 -5 41 -9 48 -5 6 -4 12 2 12 5 0 4 12 -4 27 -10 19
-11 29 -4 34 8 4 8 9 -1 14 -6 4 -9 13 -6 21 3 7 1 16 -5 19 -5 4 -7 10 -4 15
3 5 1 11 -4 15 -6 3 -7 13 -4 22 4 10 2 14 -4 10 -6 -4 -9 3 -7 18 1 14 -2 25
-7 25 -4 0 -6 7 -3 15 4 8 1 15 -5 15 -6 0 -8 6 -5 14 3 8 0 17 -5 21 -6 3 -9
11 -6 16 4 5 1 9 -5 9 -6 0 -9 4 -5 9 3 5 0 13 -6 16 -5 4 -8 13 -5 21 3 8 1
14 -4 14 -4 0 -14 16 -20 35 -6 19 -16 35 -21 35 -6 0 -8 4 -5 9 4 5 0 12 -6
14 -9 4 -9 6 2 6 10 1 7 6 -8 17 -12 8 -20 20 -17 25 4 5 1 9 -4 9 -6 0 -11 7
-11 15 0 8 -4 15 -10 15 -5 0 -10 5 -10 11 0 11 -60 92 -73 97 -4 2 -5 8 -1
13 3 5 -2 9 -10 9 -9 0 -15 4 -13 9 1 5 -13 23 -30 40 -18 17 -33 35 -33 39
-1 4 -19 21 -40 37 -21 17 -39 36 -40 43 0 7 -4 10 -10 7 -5 -3 -10 -1 -10 6
0 7 -3 10 -6 7 -3 -3 -16 4 -29 16 -39 36 -59 51 -65 49 -3 -1 -9 5 -13 13 -4
8 -17 14 -28 14 -11 0 -18 4 -15 9 3 5 -5 12 -19 15 -14 4 -25 11 -25 17 0 6
-4 7 -10 4 -5 -3 -10 -1 -10 5 0 6 -4 8 -10 5 -5 -3 -10 -2 -10 3 0 8 -24 20
-52 26 -3 0 -10 4 -14 9 -4 4 -16 7 -26 7 -11 0 -16 5 -13 10 3 6 -5 10 -19
10 -14 0 -28 5 -31 11 -4 6 -13 8 -21 5 -8 -3 -17 1 -21 10 -5 13 -7 13 -14 2
-7 -10 -9 -10 -9 0 0 6 -11 12 -24 12 -13 0 -27 6 -29 13 -4 9 -6 8 -6 -2 -1
-10 -4 -11 -15 -2 -8 7 -30 13 -50 14 -20 1 -36 4 -36 7 0 3 -19 6 -41 7 -23
2 -49 8 -57 15 -10 8 -13 9 -9 2 8 -13 -50 -13 -71 0 -7 4 -12 2 -12 -4 0 -6
-5 -8 -12 -4 -16 10 -48 13 -48 5 0 -10 -65 -7 -72 4 -5 6 -8 6 -8 -1z"/>
</g>
</svg>
